<?xml version="1.0" encoding="UTF-8"?>
<svg width="1420px" height="935px" viewBox="0 0 1420 935" version="1.1" xmlns="http://www.w3.org/2000/svg" xmlns:xlink="http://www.w3.org/1999/xlink">
    <!-- Generator: Sketch 54.1 (76490) - https://sketchapp.com -->
    <title>compare chart</title>
    <desc>Created with Sketch.</desc>
    <g id="Page-1" stroke="none" stroke-width="1" fill="none" fill-rule="evenodd">
        <g id="HPC頁2版-20190506" transform="translate(-250.000000, -2579.000000)">
            <g id="feature" transform="translate(0.000000, 524.000000)">
                <g id="feature02" transform="translate(180.000000, 1810.000000)">
                    <g id="compare-chart" transform="translate(70.000000, 245.000000)">
                        <rect id="Rectangle" stroke="#FFFFFF" fill="#FFFFFF" x="0.5" y="0.5" width="1419" height="934" rx="4"></rect>
                        <text id="Message-Size-(Bytes)" font-family="HelveticaNeue-Medium, Helvetica Neue" font-size="24" font-weight="400" fill="#4A4848">
                            <tspan x="593.488" y="930">Message Size (Bytes)</tspan>
                        </text>
                        <text id="Bandwidth-(Gbps)" transform="translate(14.000000, 459.500000) rotate(-90.000000) translate(-14.000000, -459.500000) " font-family="HelveticaNeue-Medium, Helvetica Neue" font-size="24" font-weight="400" fill="#4A4848">
                            <tspan x="-85.792" y="468.5">Bandwidth (Gbps)</tspan>
                        </text>
                        <g id="Group-15" transform="translate(191.000000, 856.000000)" fill="#4A4848" font-family="HelveticaNeue, Helvetica Neue" font-size="18" font-weight="normal">
                            <text id="1">
                                <tspan x="29.996" y="17">1</tspan>
                            </text>
                            <text id="100">
                                <tspan x="213.378977" y="17">100</tspan>
                            </text>
                            <text id="1K">
                                <tspan x="411.383977" y="17">1K</tspan>
                            </text>
                            <text id="10K">
                                <tspan x="599.379977" y="17">10K</tspan>
                            </text>
                            <text id="100K">
                                <tspan x="787.375977" y="17">100K</tspan>
                            </text>
                            <text id="1000K">
                                <tspan x="974.981" y="17">1000K</tspan>
                            </text>
                        </g>
                        <g id="Group-9-Copy" transform="translate(69.000000, 73.000000)" fill="#4A4848" font-size="18" font-weight="normal">
                            <g id="Group-10">
                                <text id="0" font-family="HelveticaNeue, Helvetica Neue">
                                    <tspan x="41.992" y="780.007104">0</tspan>
                                </text>
                                <text id="10" font-family="HelveticaNeue, Helvetica Neue">
                                    <tspan x="31.984" y="704.358528">10</tspan>
                                </text>
                                <text id="20" font-family="HelveticaNeue, Helvetica Neue">
                                    <tspan x="31.984" y="628.709952">20</tspan>
                                </text>
                                <text id="30" font-family="HelveticaNeue, Helvetica Neue">
                                    <tspan x="31.984" y="553.972804">30</tspan>
                                </text>
                                <text id="40" font-family="HelveticaNeue, Helvetica Neue">
                                    <tspan x="31.984" y="478.324228">40</tspan>
                                </text>
                                <text id="50" font-family="HelveticaNeue, Helvetica Neue">
                                    <tspan x="31.984" y="402.675652">50</tspan>
                                </text>
                                <text id="60" font-family="HelveticaNeue, Helvetica Neue">
                                    <tspan x="31.984" y="327.027076">60</tspan>
                                </text>
                                <text id="70" font-family="HelveticaNeue, Helvetica Neue">
                                    <tspan x="31.984" y="251.3785">70</tspan>
                                </text>
                                <text id="80" font-family="HelveticaNeue, Helvetica Neue">
                                    <tspan x="31.984" y="176.641353">80</tspan>
                                </text>
                                <text id="90" font-family="PingFangTC-Regular, PingFang TC">
                                    <tspan x="31.192" y="99.1699194">9</tspan>
                                    <tspan x="41.992" y="99.1699194" font-family="HelveticaNeue, Helvetica Neue">0</tspan>
                                </text>
                                <text id="100" font-family="PingFangTC-Regular, PingFang TC">
                                    <tspan x="23.974" y="19.9292693">10</tspan>
                                    <tspan x="41.992" y="19.9292693" font-family="HelveticaNeue, Helvetica Neue">0</tspan>
                                </text>
                            </g>
                        </g>
                        <g id="Group-8" transform="translate(132.000000, 86.000000)" stroke-linecap="square">
                            <path d="M2.61943245e-16,760.456235 L1208,760.456235" id="Line-2" stroke="#4A4848"></path>
                            <path d="M0,684.5 L1208,684.5" id="Line-2-Copy" stroke="#D4D4D4"></path>
                            <path d="M0,608.5 L1208,608.5" id="Line-2-Copy-2" stroke="#D4D4D4"></path>
                            <path d="M0,532.5 L1208,532.5" id="Line-2-Copy-3" stroke="#D4D4D4"></path>
                            <path d="M0,456.5 L1208,456.5" id="Line-2-Copy-4" stroke="#D4D4D4"></path>
                            <path d="M0,304.5 L1208,304.5" id="Line-2-Copy-5" stroke="#D4D4D4"></path>
                            <path d="M0,380.5 L1208,380.5" id="Line-2-Copy-6" stroke="#D4D4D4"></path>
                            <path d="M0,228.5 L1208,228.5" id="Line-2-Copy-7" stroke="#D4D4D4"></path>
                            <path d="M0,152.5 L1208,152.5" id="Line-2-Copy-8" stroke="#D4D4D4"></path>
                            <path d="M0,76.5 L1208,76.5" id="Line-2-Copy-10" stroke="#D4D4D4"></path>
                            <path d="M0,1 L1208,1" id="Line-2-Copy-9" stroke="#D4D4D4"></path>
                        </g>
                        <g id="14x" transform="translate(1000.000000, 486.000000)">
                            <rect id="Rectangle-Copy-17" fill="#27313D" x="0.363666121" y="0" width="157" height="59" rx="4"></rect>
                            <polygon id="Triangle-Copy-2" fill="#27313D" transform="translate(161.849003, 29.650997) rotate(90.000000) translate(-161.849003, -29.650997) " points="161.849003 17.6509973 168.349003 41.6509973 155.349003 41.6509973"></polygon>
                            <text id="14x-faster" font-family="HelveticaNeue-CondensedBlack, Helvetica Neue" font-size="28" font-style="condensed" font-weight="700" fill="#FFFFFF">
                                <tspan x="19.602" y="40">14x faster</tspan>
                            </text>
                        </g>
                        <polyline id="Path-5" stroke="#3AAAC4" stroke-width="9" stroke-linecap="round" stroke-linejoin="round" points="140 839.69347 368.995577 839.69347 378.048528 834.280395 432.051222 834.280395 439.727291 830.252265 466.695845 830.252265 470.417292 827.674688 519.375033 827.674688 526.021618 822.445208 548.241647 822.445208 555.529324 817.407125 577.547742 817.407125 583.475092 810.554283 599.286073 810.554283 614.52998 801.833803 633.54285 801.833803 643.789415 789.445288 652.881052 789.445288 663.280893 794.299865 674.366587 783.672274 690.697805 783.672274 702.35307 765.355082 711.460141 767.867535 716.549104 767.867535 730.755253 755.71479 750.269407 755.71479 761.00607 730.096462 767.07821 734.254638 772.214572 734.254638 780.606002 731.065853 791.154907 715.522278 800.282148 715.522278 805.979402 718.755516 809.486951 715.522278 818.731254 687.300316 828.063173 691.016693 836.850759 691.016693 848.197262 652.812211 865.371461 652.812211 876.836958 606.283382 895.046543 606.283382 905.438882 571.860516 923.995795 571.860516 935.717572 527.169589 953.448005 526.154858 965.446099 498.315868 973.026857 498.315868 982.780281 501.449713 984.29275 500.360947 992.612048 445.60674 1015.46714 445.60674 1021.88472 442.986943 1030.74623 422.552376 1040.8983 422.552376 1051.54912 358.82682 1068.07822 358.82682 1072.95173 355.940023 1079.9934 332.366989 1099.68351 332.366989 1110.7218 280.172338 1127.91267 287.831903 1140.08496 262.883585 1158.82708 262.883585 1167.08318 238.142442 1178.29958 249.733907 1187.01315 249.733907 1200.21961 225.559921 1216.05601 225.559921 1227.38229 209.69347 1236 214.529658 1247.95196 203.71519 1264.68825 203.71519 1276.41695 196.963683 1288 196.963683"></polyline>
                        <polyline id="Path-6" stroke="#BFE1E9" stroke-width="9" stroke-linecap="round" stroke-linejoin="round" points="140 839.379424 384.069754 839.379424 390.119802 836.565743 493.180184 837.972584 542.745274 836.565743 638.525575 837.972584 646.432126 832.774788 656.595396 839.848371 664.648936 832.774788 749.08017 836.31158 755.707019 832.774788 783.058202 832.774788 790.570722 828.316832 810.569933 828.316832 818.965625 824.346724 843.926657 824.346724 851.552815 821.316737 874.890787 821.316737 880.118177 817.679483 903.977405 817.679483 912.648548 811.91425 930.509619 811.91425 943.478041 821.316737 992.833146 821.316737 1003.25457 815.909767 1026.41962 815.909767 1033.30712 811.91425 1057.03048 811.91425 1064.53929 809.349242 1089.08036 809.349242 1096.40759 805.395649 1119.53064 805.395649 1125.93642 801.609754 1136.32202 801.609754 1148.096 805.395649 1157.14512 801.609754 1168.48677 805.395649 1186.24779 805.395649 1199.84246 801.609754 1213.79782 801.609754 1226.76871 794.872639 1238.51922 799.725699 1248.79983 791.721961 1260.18966 801.609754 1273.72257 794.872639 1288 794.872639"></polyline>
                        <g id="Group-12" transform="translate(1185.000000, 241.000000)">
                            <path d="M17.574359,2.59627313 L0.574358974,2.59627313" id="Line" stroke="#27313D" stroke-width="3" stroke-linecap="round" stroke-linejoin="round"></path>
                            <path d="M17.574359,550.596273 L0.574358974,550.596273" id="Line-Copy" stroke="#27313D" stroke-width="3" stroke-linecap="round" stroke-linejoin="round"></path>
                            <path id="Line-3" d="M8.07435897,10.0393447 L1.88172228,21.0484766 C1.47557657,21.7705135 0.561003931,22.0265938 -0.161032885,21.6204481 C-0.883069701,21.2143024 -1.13915004,20.2997297 -0.733004331,19.5776929 L8.26699567,3.57769292 C8.84045177,2.5582154 10.3082662,2.5582154 10.8817223,3.57769292 L19.8817223,19.5776929 C20.287868,20.2997297 20.0317877,21.2143024 19.3097508,21.6204481 C18.587714,22.0265938 17.6731414,21.7705135 17.2669957,21.0484766 L11.074359,10.0393447 L11.074359,21.3130848 C11.074359,22.1415119 10.4027861,22.8130848 9.57435897,22.8130848 C8.74593185,22.8130848 8.07435897,22.1415119 8.07435897,21.3130848 L8.07435897,10.0393447 Z M9.57435897,546.809951 L17.2669957,533.134153 C17.6731414,532.412116 18.587714,532.156036 19.3097508,532.562181 C20.0317877,532.968327 20.287868,533.8829 19.8817223,534.604937 L10.8817223,550.604937 C10.3082662,551.624414 8.84045177,551.624414 8.26699567,550.604937 L-0.733004331,534.604937 C-1.13915004,533.8829 -0.883069701,532.968327 -0.161032885,532.562181 C0.561003931,532.156036 1.47557657,532.412116 1.88172228,533.134153 L9.57435897,546.809951 Z M8.07435897,37.3130848 C8.07435897,36.4846577 8.74593185,35.8130848 9.57435897,35.8130848 C10.4027861,35.8130848 11.074359,36.4846577 11.074359,37.3130848 L11.074359,53.3130848 C11.074359,54.1415119 10.4027861,54.8130848 9.57435897,54.8130848 C8.74593185,54.8130848 8.07435897,54.1415119 8.07435897,53.3130848 L8.07435897,37.3130848 Z M8.07435897,69.3130848 C8.07435897,68.4846577 8.74593185,67.8130848 9.57435897,67.8130848 C10.4027861,67.8130848 11.074359,68.4846577 11.074359,69.3130848 L11.074359,85.3130848 C11.074359,86.1415119 10.4027861,86.8130848 9.57435897,86.8130848 C8.74593185,86.8130848 8.07435897,86.1415119 8.07435897,85.3130848 L8.07435897,69.3130848 Z M8.07435897,101.313085 C8.07435897,100.484658 8.74593185,99.8130848 9.57435897,99.8130848 C10.4027861,99.8130848 11.074359,100.484658 11.074359,101.313085 L11.074359,117.313085 C11.074359,118.141512 10.4027861,118.813085 9.57435897,118.813085 C8.74593185,118.813085 8.07435897,118.141512 8.07435897,117.313085 L8.07435897,101.313085 Z M8.07435897,133.313085 C8.07435897,132.484658 8.74593185,131.813085 9.57435897,131.813085 C10.4027861,131.813085 11.074359,132.484658 11.074359,133.313085 L11.074359,149.313085 C11.074359,150.141512 10.4027861,150.813085 9.57435897,150.813085 C8.74593185,150.813085 8.07435897,150.141512 8.07435897,149.313085 L8.07435897,133.313085 Z M8.07435897,165.313085 C8.07435897,164.484658 8.74593185,163.813085 9.57435897,163.813085 C10.4027861,163.813085 11.074359,164.484658 11.074359,165.313085 L11.074359,181.313085 C11.074359,182.141512 10.4027861,182.813085 9.57435897,182.813085 C8.74593185,182.813085 8.07435897,182.141512 8.07435897,181.313085 L8.07435897,165.313085 Z M8.07435897,197.313085 C8.07435897,196.484658 8.74593185,195.813085 9.57435897,195.813085 C10.4027861,195.813085 11.074359,196.484658 11.074359,197.313085 L11.074359,213.313085 C11.074359,214.141512 10.4027861,214.813085 9.57435897,214.813085 C8.74593185,214.813085 8.07435897,214.141512 8.07435897,213.313085 L8.07435897,197.313085 Z M8.07435897,229.313085 C8.07435897,228.484658 8.74593185,227.813085 9.57435897,227.813085 C10.4027861,227.813085 11.074359,228.484658 11.074359,229.313085 L11.074359,245.313085 C11.074359,246.141512 10.4027861,246.813085 9.57435897,246.813085 C8.74593185,246.813085 8.07435897,246.141512 8.07435897,245.313085 L8.07435897,229.313085 Z M8.07435897,261.313085 C8.07435897,260.484658 8.74593185,259.813085 9.57435897,259.813085 C10.4027861,259.813085 11.074359,260.484658 11.074359,261.313085 L11.074359,277.313085 C11.074359,278.141512 10.4027861,278.813085 9.57435897,278.813085 C8.74593185,278.813085 8.07435897,278.141512 8.07435897,277.313085 L8.07435897,261.313085 Z M8.07435897,293.313085 C8.07435897,292.484658 8.74593185,291.813085 9.57435897,291.813085 C10.4027861,291.813085 11.074359,292.484658 11.074359,293.313085 L11.074359,309.313085 C11.074359,310.141512 10.4027861,310.813085 9.57435897,310.813085 C8.74593185,310.813085 8.07435897,310.141512 8.07435897,309.313085 L8.07435897,293.313085 Z M8.07435897,325.313085 C8.07435897,324.484658 8.74593185,323.813085 9.57435897,323.813085 C10.4027861,323.813085 11.074359,324.484658 11.074359,325.313085 L11.074359,341.313085 C11.074359,342.141512 10.4027861,342.813085 9.57435897,342.813085 C8.74593185,342.813085 8.07435897,342.141512 8.07435897,341.313085 L8.07435897,325.313085 Z M8.07435897,357.313085 C8.07435897,356.484658 8.74593185,355.813085 9.57435897,355.813085 C10.4027861,355.813085 11.074359,356.484658 11.074359,357.313085 L11.074359,373.313085 C11.074359,374.141512 10.4027861,374.813085 9.57435897,374.813085 C8.74593185,374.813085 8.07435897,374.141512 8.07435897,373.313085 L8.07435897,357.313085 Z M8.07435897,389.313085 C8.07435897,388.484658 8.74593185,387.813085 9.57435897,387.813085 C10.4027861,387.813085 11.074359,388.484658 11.074359,389.313085 L11.074359,405.313085 C11.074359,406.141512 10.4027861,406.813085 9.57435897,406.813085 C8.74593185,406.813085 8.07435897,406.141512 8.07435897,405.313085 L8.07435897,389.313085 Z M8.07435897,421.313085 C8.07435897,420.484658 8.74593185,419.813085 9.57435897,419.813085 C10.4027861,419.813085 11.074359,420.484658 11.074359,421.313085 L11.074359,437.313085 C11.074359,438.141512 10.4027861,438.813085 9.57435897,438.813085 C8.74593185,438.813085 8.07435897,438.141512 8.07435897,437.313085 L8.07435897,421.313085 Z M8.07435897,453.313085 C8.07435897,452.484658 8.74593185,451.813085 9.57435897,451.813085 C10.4027861,451.813085 11.074359,452.484658 11.074359,453.313085 L11.074359,469.313085 C11.074359,470.141512 10.4027861,470.813085 9.57435897,470.813085 C8.74593185,470.813085 8.07435897,470.141512 8.07435897,469.313085 L8.07435897,453.313085 Z M8.07435897,485.313085 C8.07435897,484.484658 8.74593185,483.813085 9.57435897,483.813085 C10.4027861,483.813085 11.074359,484.484658 11.074359,485.313085 L11.074359,501.313085 C11.074359,502.141512 10.4027861,502.813085 9.57435897,502.813085 C8.74593185,502.813085 8.07435897,502.141512 8.07435897,501.313085 L8.07435897,485.313085 Z M8.07435897,517.313085 C8.07435897,516.484658 8.74593185,515.813085 9.57435897,515.813085 C10.4027861,515.813085 11.074359,516.484658 11.074359,517.313085 L11.074359,533.313085 C11.074359,534.141512 10.4027861,534.813085 9.57435897,534.813085 C8.74593185,534.813085 8.07435897,534.141512 8.07435897,533.313085 L8.07435897,517.313085 Z" fill="#27313D" fill-rule="nonzero"></path>
                        </g>
                        <ellipse id="Oval" stroke="#3AAAC4" stroke-width="6" fill="#FFFFFF" cx="1195.80256" cy="230.972097" rx="7.8025641" ry="7.97209721"></ellipse>
                        <ellipse id="Oval-Copy-14" stroke="#BFE1E9" stroke-width="6" fill="#FFFFFF" cx="1194.80256" cy="803.972097" rx="7.8025641" ry="7.97209721"></ellipse>
                        <g id="name-area" transform="translate(168.000000, 412.000000)">
                            <rect id="Rectangle" stroke="#4A4848" fill="#FFFFFF" x="0.5" y="0.5" width="204" height="112"></rect>
                            <rect id="Rectangle-Copy-18" fill="#3AAAC4" x="23" y="32" width="47" height="6" rx="3"></rect>
                            <ellipse id="Oval" fill="#3AAAC4" cx="46" cy="34.9981007" rx="5" ry="4.99810069"></ellipse>
                            <rect id="Rectangle-Copy-19" fill="#BFE1E9" x="23" y="76" width="47" height="6" rx="3"></rect>
                            <ellipse id="Oval" fill="#BFE1E9" cx="47" cy="78.9981007" rx="5" ry="4.99810069"></ellipse>
                            <text id="InfiniBand" font-family="HelveticaNeue, Helvetica Neue" font-size="20" font-weight="normal" fill="#4A4848">
                                <tspan x="85" y="42">InfiniBand</tspan>
                            </text>
                            <text id="10GbE-Copy" font-family="HelveticaNeue, Helvetica Neue" font-size="20" font-weight="normal" fill="#4A4848">
                                <tspan x="85" y="86">10GbE</tspan>
                            </text>
                        </g>
                    </g>
                </g>
            </g>
        </g>
    </g>
</svg>